<svg xmlns="http://www.w3.org/2000/svg" viewBox="0 0 750 500"><g id="freepik--background-complete--inject-10"><path d="M502.15,73.42c.47-3.4-4.34-6.2-7.95-6.49-1.72-.14-3.51.12-5.14-.45-3.54-1.23-4.95-5.8-8.4-7.25-2.57-1.09-5.54-.12-8,1.14s-5,2.84-7.76,3c-2.43.15-5.07-.75-7.19.44-1.59.88-2.42,2.71-3.88,3.78A9.22,9.22,0,0,1,448.73,69a14.1,14.1,0,0,0-5.22.85c-1.61.74-2.95,2.44-2.61,4.19Z" style="fill:#fafafa"></path><path d="M686.24,78.63c.47-3.4-4.34-6.21-8-6.5-1.72-.13-3.51.13-5.14-.44-3.53-1.23-4.95-5.8-8.39-7.25-2.58-1.09-5.55-.12-8,1.14s-5,2.84-7.76,3c-2.43.15-5.07-.75-7.19.44-1.59.88-2.42,2.71-3.88,3.78a9.19,9.19,0,0,1-5.06,1.38,14.13,14.13,0,0,0-5.22.85c-1.61.74-3,2.44-2.61,4.18Z" style="fill:#e0e0e0"></path><path d="M126.39,97.23c.46-3.4-4.34-6.2-8-6.49-1.72-.14-3.51.12-5.14-.45-3.54-1.23-5-5.8-8.4-7.25-2.58-1.09-5.54-.12-8,1.14s-5,2.84-7.77,3c-2.42.15-5.06-.75-7.19.44-1.58.88-2.41,2.71-3.87,3.78A9.22,9.22,0,0,1,73,92.8a14.1,14.1,0,0,0-5.22.85c-1.61.74-3,2.44-2.61,4.19Z" style="fill:#e0e0e0"></path><path d="M576.11,113.72c.69-5-6.34-9.07-11.62-9.5-2.52-.2-5.13.18-7.52-.65-5.16-1.8-7.23-8.48-12.27-10.6-3.77-1.59-8.11-.18-11.77,1.66s-7.27,4.16-11.35,4.42c-3.55.22-7.41-1.09-10.52.64-2.31,1.3-3.52,4-5.66,5.54s-4.81,1.86-7.4,2-5.27.16-7.63,1.24-4.31,3.58-3.83,6.13Z" style="fill:#ebebeb"></path><path d="M222.08,123.55c.59-4.33-5.52-7.9-10.11-8.27-2.19-.17-4.47.16-6.54-.56-4.5-1.57-6.29-7.38-10.68-9.23-3.28-1.38-7.06-.15-10.24,1.45s-6.32,3.62-9.87,3.84c-3.09.2-6.45-1-9.15.56-2,1.13-3.07,3.45-4.93,4.82s-4.18,1.62-6.43,1.75-4.59.14-6.64,1.08-3.75,3.11-3.33,5.33Z" style="fill:#f5f5f5"></path><path d="M248.15,220.13c-4.14-9.32-18.12-12.28-25.68-5.43-3.74-8.54-16.67-11.11-23.39-4.65a11.71,11.71,0,0,0-20.76-7.22A22.08,22.08,0,0,0,138,193.67c-13.39-6.38-31.15-1.37-39.22,11.08-5.06-8.19-18.77-8.77-24.5-1a21.2,21.2,0,0,0-21.62-6.66,21.22,21.22,0,0,0-14.83,17.09c-9.36-6.34-23.28,1-28,11.28H271.33C270.16,217.54,254.44,214.91,248.15,220.13Z" style="fill:#e0e0e0"></path><path d="M569.43,471.87a7,7,0,0,0-2.76-2.63l-26.79-17.41a12.08,12.08,0,0,0,7.24-15.18c-2.68-7-11.07-9.67-18.41-11.34s-15.73-4.09-18.71-11c-1.48-3.43-1.28-7.42-2.86-10.81-3.44-7.41-13.14-8.73-20.45-12.39-10.58-5.3-17.05-16.53-27.2-22.63-6.05-3.64-13.59-5.65-17.46-11.55-1.06-1.61-1.82-3.5-3.37-4.65s-4.26-1-4.87.84a4.23,4.23,0,0,0,.07,2.2c5.7,26.65,26.11,47.35,38.8,71.46,8.61,16.37,13.79,34.61,24.43,49.74l32.85,10.73a76.89,76.89,0,0,0,15.36,1.48c9.86,0,21.56-3.58,24.18-13.09A5.54,5.54,0,0,0,569.43,471.87Z" style="fill:#e0e0e0"></path><path d="M659,431.07c5.63,1.78,9.28,7,13.57,11.1s11.09,7.12,15.9,3.68q-10.57-11.1-21.14-22.22l-40.09,1.29c10.63,6.3,13.12,21.45,23.47,28.21-4.51-6.91-9-13.84-12.89-21.13-.64-1.21-1.19-2.88-.17-3.79a2.61,2.61,0,0,1,1.73-.52c3.53,0,6.54,2.63,8.48,5.58s3.19,6.33,5.31,9.15,5.19,5.1,8.15,7.23l15,10.81c.31-2.74-1.12-5.37-2.66-7.66a58.74,58.74,0,0,0-11-12.27c-2.45-2.06-5.13-4-6.84-6.68a2.56,2.56,0,0,1-.51-1.46C655.34,430.87,657.5,430.61,659,431.07Z" style="fill:#f5f5f5"></path><path d="M133.83,352.13c-.67-1.36-1.81-2.52-2.06-4-.31-1.78.56-4.07-.9-5.15-1.23-.91-3.45-.21-4.15-1.57L99.55,340c-2.27,1.45-4.65,3-5.75,5.5s-.14,6,2.47,6.63c2.22.53,5-1,6.59.65a3.89,3.89,0,0,1,.81,1.73c1.24,4.63,1.52,10.35,5.7,12.69,1.88,1.05,4.17,1.11,6.12,2,4.85,2.27,6.78,9.3,12.06,10.13a3.51,3.51,0,0,0,3.71-1.46c1-1.84-.67-3.87-1.64-5.71-2.3-4.38-.86-10.08-3.37-14.35a17.64,17.64,0,0,1-1.92-3.26c-.4-1.2-.08-2.79,1.1-3.25,3-1.21,4.6,6,7.62,4.77C134.45,355.51,134.49,353.48,133.83,352.13Z" style="fill:#f5f5f5"></path><path d="M412.53,228.42l4.13,0A35.55,35.55,0,0,0,412.53,228.42Z" style="fill:#f5f5f5"></path><path d="M416.66,228.39a35.52,35.52,0,0,1,22.74,9.88c3.26,3.17,6.28,7.2,10.77,8,3.78.63,7.53-1.31,11.37-1.28,5.26,0,9.7,3.69,14.46,5.94s11.67,2.48,14.08-2.2c.25,3.91,4.33,6.37,8.1,7.44s8,1.57,10.76,4.33c2.23,2.21,3.56,5.82,6.66,6.36,1.72.29,3.42-.53,5.14-.78,3.44-.49,6.74,1.28,10.07,2.26s7.68.78,9.35-2.26l43.52,5.76a137,137,0,0,0,15.39,1.46,69.21,69.21,0,0,0,19.11-2.32c3.24-.86,6.42-2,9.61-3a35.12,35.12,0,0,1,6.5-1.69,52.71,52.71,0,0,1,7-.15c13.54,0,26.64-4.41,39.45-8.79,19.85-6.8,40.89-14.42,53.62-31.11Z" style="fill:#f5f5f5"></path><path d="M11.29,225.43c4.37,3.87,13.8,4,19.27,6,2.26.85,3.93,2.76,5.87,4.21a16.83,16.83,0,0,0,17,1.69A127.52,127.52,0,0,0,68.1,243.1a83.56,83.56,0,0,0,24.47,3.74c22.22,0,43.48-8.71,65.51-11.65,27.94-3.73,56.54,2,84.42-2.16a50.63,50.63,0,0,0,13.63-3.61,31.73,31.73,0,0,0,7.21-4.51Z" style="fill:#f5f5f5"></path><path d="M307,274c0,.14-32.41.26-72.38.26s-72.38-.12-72.38-.26,32.4-.26,72.38-.26S307,273.83,307,274Z" style="fill:#e0e0e0"></path><path d="M322.46,280.61c0,.14-12.62.26-28.19.26s-28.2-.12-28.2-.26,12.62-.26,28.2-.26S322.46,280.46,322.46,280.61Z" style="fill:#e0e0e0"></path><path d="M160.65,435.77c0,.14-25.41.26-56.74.26s-56.74-.12-56.74-.26,25.4-.26,56.74-.26S160.65,435.62,160.65,435.77Z" style="fill:#e0e0e0"></path><path d="M170.45,441.72c0,.15-12.23.26-27.31.26s-27.32-.11-27.32-.26,12.22-.26,27.32-.26S170.45,441.58,170.45,441.72Z" style="fill:#e0e0e0"></path><path d="M318.74,47.16s-.43-.12-1.21-.27a9.65,9.65,0,0,0-3.32-.09,8.87,8.87,0,0,0-4.45,2,9.24,9.24,0,0,0-3.14,5v0l-.19.74-.28-.7a10,10,0,0,0-3.76-4.55,9.78,9.78,0,0,0-4.6-1.56,12.93,12.93,0,0,0-4.5.57,4.06,4.06,0,0,1,1.14-.5,10,10,0,0,1,8.21,1.1,10.27,10.27,0,0,1,4,4.75l-.48,0,0-.06a9.56,9.56,0,0,1,3.33-5.23,9.1,9.1,0,0,1,4.69-1.94,9,9,0,0,1,3.41.25A3.51,3.51,0,0,1,318.74,47.16Z" style="fill:#e0e0e0"></path><path d="M192.1,41.59s-.36.42-1,1.16a25.35,25.35,0,0,0-2.47,3.36,24.35,24.35,0,0,0-3.67,13v.17l-.46,0a21.88,21.88,0,0,0-6-11.95,30.1,30.1,0,0,0-4.38-3.55s.13,0,.36.16.57.29,1,.57a19.17,19.17,0,0,1,3.27,2.59A21.69,21.69,0,0,1,185,59.27l-.46,0v-.16a24,24,0,0,1,3.86-13.21,21.32,21.32,0,0,1,2.61-3.3c.34-.36.64-.61.82-.79A1.28,1.28,0,0,1,192.1,41.59Z" style="fill:#e0e0e0"></path></g><g id="freepik--Dock--inject-10"><path d="M495.38,432.71,483,434l9.6-5.46L476.5,404.63l-12.62-1.25L474.05,401,438.36,347.9H291l-1.56,2.39h0l4.47,2.13-6.07,1.1A19.73,19.73,0,0,0,290.7,355c.42,0-5.71,2.17-5.71,2.17l-17.25,26.59,4.19,1.62-7.33,3.22-63.93,98.53H532Z" style="fill:#455a64"></path><path d="M447.5,361.64c0,.14-37,.26-82.57.26s-82.57-.12-82.57-.26,37-.26,82.57-.26S447.5,361.5,447.5,361.64Z" style="fill:#263238"></path><path d="M458.62,377.63c0,.15-41.79.26-93.34.26s-93.35-.11-93.35-.26,41.79-.26,93.35-.26S458.62,377.49,458.62,377.63Z" style="fill:#263238"></path><path d="M469.8,394.67c0,.14-46.63.26-104.14.26s-104.15-.12-104.15-.26,46.62-.26,104.15-.26S469.8,394.52,469.8,394.67Z" style="fill:#263238"></path><path d="M483,414.83c0,.14-52.77.26-117.85.26s-117.86-.12-117.86-.26,52.76-.26,117.86-.26S483,414.69,483,414.83Z" style="fill:#263238"></path><path d="M499.42,438.72c0,.14-59.49.12-132.86,0s-132.87-.41-132.87-.56,59.48-.13,132.87,0S499.42,438.57,499.42,438.72Z" style="fill:#263238"></path><path d="M514.59,462.46c0,.14-66.54.26-148.61.26s-148.63-.12-148.63-.26,66.53-.26,148.63-.26S514.59,462.31,514.59,462.46Z" style="fill:#263238"></path><path d="M532,487.14c0,.14-74.17.26-165.64.26s-165.66-.12-165.66-.26,74.15-.26,165.66-.26S532,487,532,487.14Z" style="fill:#263238"></path><path d="M286.58,381.56c0,.06-.25.11-.55.11s-.55-.05-.55-.11.25-.1.55-.1S286.58,381.51,286.58,381.56Z" style="fill:#263238"></path><path d="M331.41,380.46c0,.06-8.39.11-18.74.11s-18.74-.05-18.74-.11,8.39-.1,18.74-.1S331.41,380.4,331.41,380.46Z" style="fill:#263238"></path><path d="M335.45,383.77c0,.06-8.3.1-18.55.1s-18.56,0-18.56-.1,8.31-.1,18.56-.1S335.45,383.71,335.45,383.77Z" style="fill:#263238"></path><path d="M445.33,386.71c0,.06-5.27.1-11.76.1s-11.76,0-11.76-.1,5.26-.11,11.76-.11S445.33,386.65,445.33,386.71Z" style="fill:#263238"></path><path d="M459.48,407.5l-1.3.09-3.73.22a119.39,119.39,0,0,1-13.73-.5c-5.78-.52-12.62-1.52-20.19-2.73s-15.9-2.57-24.72-3.21A95.26,95.26,0,0,0,371,402.73a140.25,140.25,0,0,0-19.61,5.43c-5.47,1.92-9.84,3.64-12.86,4.81L335,414.34c-.79.31-1.22.46-1.22.46s.41-.18,1.21-.5l3.46-1.4c3-1.2,7.37-2.94,12.84-4.87A139.51,139.51,0,0,1,371,402.54a94.77,94.77,0,0,1,24.87-1.37c8.84.64,17.17,2,24.74,3.22s14.4,2.24,20.18,2.77a124.58,124.58,0,0,0,13.71.57l3.73-.18Z" style="fill:#263238"></path><path d="M453.64,452.08c0,.06-49.61.11-110.79.11s-110.8-.05-110.8-.11,49.6-.1,110.8-.1S453.64,452,453.64,452.08Z" style="fill:#263238"></path><path d="M504.53,450.19c0,.05-21.53.1-48.08.1s-48.09-.05-48.09-.1,21.52-.11,48.09-.11S504.53,450.13,504.53,450.19Z" style="fill:#263238"></path><path d="M409.9,475.39c0,.05-42.72.1-95.4.1s-95.41-.05-95.41-.1,42.71-.11,95.41-.11S409.9,475.33,409.9,475.39Z" style="fill:#263238"></path><path d="M523,473.84c0,.06-36.62.11-81.77.11s-81.77-.05-81.77-.11,36.6-.1,81.77-.1S523,473.79,523,473.84Z" style="fill:#263238"></path><path d="M479.84,425.5c0,.06-30.28.1-67.62.1s-67.64,0-67.64-.1,30.28-.1,67.64-.1S479.84,425.44,479.84,425.5Z" style="fill:#263238"></path><path d="M348.7,403.38c0,.06-19.12.11-42.69.11s-42.69-.05-42.69-.11,19.11-.1,42.69-.1S348.7,403.33,348.7,403.38Z" style="fill:#263238"></path><path d="M408.36,386.41c0,.06-12.32.11-27.52.11s-27.51,0-27.51-.11,12.31-.1,27.51-.1S408.36,386.35,408.36,386.41Z" style="fill:#263238"></path><path d="M443.33,371.5c0,.05-17.73.1-39.6.1s-39.6-.05-39.6-.1,17.72-.11,39.6-.11S443.33,371.44,443.33,371.5Z" style="fill:#263238"></path><path d="M339.44,353c0,.06-9,.11-20.06.11s-20.06,0-20.06-.11,9-.1,20.06-.1S339.44,352.92,339.44,353Z" style="fill:#263238"></path><path d="M262.66,436.2s0-.16,0-.48a5.34,5.34,0,0,1,.31-1.35,10.54,10.54,0,0,1,3.22-4.21,54.1,54.1,0,0,1,17-9.63A70.92,70.92,0,0,1,312,417c1.37.12,2.75.26,4.15.43s2.8.38,4.21.66a14.52,14.52,0,0,1,4.15,1.35,7.12,7.12,0,0,1,3.13,3.13,4.78,4.78,0,0,1,0,4.43,8.65,8.65,0,0,1-3.29,3.2,30.14,30.14,0,0,1-4.22,2l-2.21.83-2.25.74a60.1,60.1,0,0,1-18.25,2.68,61.25,61.25,0,0,1-8.76-.72c-1.43-.21-2.82-.5-4.2-.82a3.75,3.75,0,0,1-1.87-1,2,2,0,0,1-.31-2,6.14,6.14,0,0,1,3-2.7,36.21,36.21,0,0,1,3.57-1.7,37.36,37.36,0,0,1,7.27-2.12,36,36,0,0,1,13.52.09,5.94,5.94,0,0,1,1.49.44,1.88,1.88,0,0,1,1,1.1,1.58,1.58,0,0,1-.28,1.44,3.83,3.83,0,0,1-1.11.91,8.87,8.87,0,0,1-2.59.86c-.86.2-1.7.38-2.51.54a74,74,0,0,1-8.37,1.16c-2.32.19-4.12.24-5.34.25s-1.86,0-1.86,0l1.86,0c1.22,0,3-.08,5.33-.28a77.16,77.16,0,0,0,8.36-1.19c.81-.17,1.64-.35,2.5-.55a8.91,8.91,0,0,0,2.55-.85,3.51,3.51,0,0,0,1.07-.89A1.4,1.4,0,0,0,312,427a1.7,1.7,0,0,0-1-1,5.87,5.87,0,0,0-1.46-.43,35.92,35.92,0,0,0-13.46-.06,36.8,36.8,0,0,0-7.23,2.12,32.86,32.86,0,0,0-3.55,1.7,6,6,0,0,0-2.93,2.6,1.72,1.72,0,0,0,.28,1.84,3.53,3.53,0,0,0,1.78.94c1.36.3,2.75.59,4.17.8a59.57,59.57,0,0,0,8.74.71,60.3,60.3,0,0,0,18.18-2.66l2.25-.75L320,432a30.45,30.45,0,0,0,4.2-2,8.56,8.56,0,0,0,3.21-3.11,4.64,4.64,0,0,0,0-4.26,6.9,6.9,0,0,0-3-3,14.54,14.54,0,0,0-4.09-1.34c-1.41-.28-2.82-.44-4.21-.66s-2.77-.3-4.13-.43a71,71,0,0,0-28.7,3.52,54.33,54.33,0,0,0-17,9.55,10.66,10.66,0,0,0-3.23,4.16,6.09,6.09,0,0,0-.33,1.35Z" style="fill:#263238"></path><path d="M280.72,393.22a17.68,17.68,0,0,1-11.52,0V357a11.87,11.87,0,0,1,11.52,0Z" style="fill:#263238"></path><path d="M280.74,357s-.14.09-.4.22-.67.28-1.17.45a13.85,13.85,0,0,1-8.13.12,9.82,9.82,0,0,1-1.18-.42,2.75,2.75,0,0,1-.41-.2s.62.21,1.63.48a15.27,15.27,0,0,0,8.05-.12C280.13,357.2,280.73,356.94,280.74,357Z" style="fill:#455a64"></path><path d="M278.77,356.68a1.41,1.41,0,0,1-.48.36,5.85,5.85,0,0,1-1.59.42,13,13,0,0,1-2.43.12,12.12,12.12,0,0,1-1.43-.14,1,1,0,0,1-.72-.4.59.59,0,0,1,.29-.79A4.87,4.87,0,0,1,274,356a9.72,9.72,0,0,1,1.45.07,6.49,6.49,0,0,1,.66.11.87.87,0,0,1,.59.35.4.4,0,0,1-.32.55,2.12,2.12,0,0,1-.56,0l-1.63-.09a2.79,2.79,0,0,1-.6-.07,3.54,3.54,0,0,1,.6,0l1.64,0a1.73,1.73,0,0,0,.51,0c.17,0,.28-.18.21-.31-.19-.28-.7-.28-1.13-.35a7.4,7.4,0,0,0-2.87.17.38.38,0,0,0-.21.51.88.88,0,0,0,.57.3c.48.08,1,.12,1.41.15a13,13,0,0,0,2.4-.08,5.75,5.75,0,0,0,1.58-.35C278.6,356.81,278.76,356.66,278.77,356.68Z" style="fill:#455a64"></path><path d="M268.88,379a.72.72,0,0,1,0-.22c0-.19.07-.39.1-.61.12-.65.25-1.39.39-2.24.34-1.89.78-4.5,1.24-7.39s.82-5.51,1.07-7.41c.12-.85.22-1.6.31-2.25,0-.22.07-.42.1-.61a.71.71,0,0,1,0-.21s0,.07,0,.21,0,.4-.06.62l-.24,2.26c-.22,1.9-.57,4.53-1,7.43s-.92,5.5-1.29,7.38c-.17.84-.33,1.58-.46,2.23l-.14.6A.64.64,0,0,1,268.88,379Z" style="fill:#455a64"></path><path d="M280.55,362.83a4.93,4.93,0,0,0-.8-.31,3.16,3.16,0,0,0-2.22.39,7.11,7.11,0,0,0-2.28,2.53,29.45,29.45,0,0,0-2,3.77,58,58,0,0,0-2.52,7.31c-.25.86-.46,1.61-.65,2.26-.06.22-.12.42-.18.61a1.25,1.25,0,0,1-.07.21s0-.07,0-.22.1-.4.15-.62c.16-.66.35-1.41.57-2.28a52.11,52.11,0,0,1,2.48-7.36,29,29,0,0,1,2-3.78,7.07,7.07,0,0,1,2.38-2.56,3.18,3.18,0,0,1,2.31-.34A1.92,1.92,0,0,1,280.55,362.83Z" style="fill:#455a64"></path><path d="M276.73,382.22a.84.84,0,0,1,.35.49,1.43,1.43,0,0,1-.54,1.57,1.9,1.9,0,0,1-2.5-.57,4.11,4.11,0,0,1-.4-3.54,14,14,0,0,1,.58-2,2.7,2.7,0,0,1,1.59-1.65,2.14,2.14,0,0,1,2.24.86,7.9,7.9,0,0,1,1.26,2.3,9.77,9.77,0,0,1,.28,5.56,8.56,8.56,0,0,1-3.19,5,3.55,3.55,0,0,1-3,.66,3.4,3.4,0,0,1-2.1-2.07A6.51,6.51,0,0,1,271,386c.08-.94.21-1.84.34-2.72a26.71,26.71,0,0,1,2.84-9,15.85,15.85,0,0,1,4.1-4.86,9.28,9.28,0,0,1,2-1.23l-.52.31a11.6,11.6,0,0,0-1.42,1,15.91,15.91,0,0,0-4,4.86,26.94,26.94,0,0,0-2.78,9c-.13.87-.26,1.78-.33,2.7a6.33,6.33,0,0,0,.33,2.76,3.2,3.2,0,0,0,2,1.95,3.37,3.37,0,0,0,2.78-.63,8.46,8.46,0,0,0,3.12-4.89,9.62,9.62,0,0,0-.27-5.44,7.63,7.63,0,0,0-1.22-2.25,2,2,0,0,0-2.05-.81,2.52,2.52,0,0,0-1.49,1.54,16.21,16.21,0,0,0-.59,2,4.05,4.05,0,0,0,.35,3.44,1.83,1.83,0,0,0,2.37.58,1.42,1.42,0,0,0,.54-1.5A1.15,1.15,0,0,0,276.73,382.22Z" style="fill:#455a64"></path><path d="M464.25,391.28a17.71,17.71,0,0,1-11.53,0V355a11.84,11.84,0,0,1,11.53,0Z" style="fill:#263238"></path><path d="M464.26,355a2.69,2.69,0,0,1-.4.21,8.84,8.84,0,0,1-1.17.45,13.41,13.41,0,0,1-4.05.67,13.76,13.76,0,0,1-4.08-.55,8.12,8.12,0,0,1-1.17-.42,1.65,1.65,0,0,1-.42-.2s.62.22,1.63.48a15.7,15.7,0,0,0,4,.49,15.35,15.35,0,0,0,4-.61C463.65,355.27,464.25,355,464.26,355Z" style="fill:#455a64"></path><path d="M462.29,354.74a1.41,1.41,0,0,1-.48.36,5.12,5.12,0,0,1-1.59.42,12.9,12.9,0,0,1-2.43.13,12.42,12.42,0,0,1-1.43-.15,1,1,0,0,1-.72-.4.59.59,0,0,1,.29-.79,4.86,4.86,0,0,1,1.56-.24,9.68,9.68,0,0,1,1.44.06l.66.11a.85.85,0,0,1,.59.36c.15.26-.12.53-.32.54a2.15,2.15,0,0,1-.56,0l-1.63-.1a4.54,4.54,0,0,1-.59-.06,2.79,2.79,0,0,1,.6,0l1.63,0a2.16,2.16,0,0,0,.51,0c.17,0,.28-.18.21-.31-.19-.28-.69-.29-1.12-.36a7.85,7.85,0,0,0-2.88.17c-.2.11-.32.34-.21.51a.84.84,0,0,0,.58.3c.48.08,1,.13,1.4.16a13.84,13.84,0,0,0,2.4-.09,6.21,6.21,0,0,0,1.58-.34A3.06,3.06,0,0,0,462.29,354.74Z" style="fill:#455a64"></path><path d="M452.4,377a1.73,1.73,0,0,1,0-.22l.1-.61c.12-.65.25-1.39.4-2.23.33-1.89.78-4.5,1.23-7.39s.82-5.52,1.08-7.42c.11-.85.22-1.59.31-2.25l.09-.61a1.76,1.76,0,0,1,0-.21.63.63,0,0,1,0,.22c0,.19,0,.4-.05.61-.07.66-.16,1.41-.25,2.26-.22,1.91-.57,4.54-1,7.43s-.92,5.5-1.29,7.38l-.46,2.23c-.05.21-.09.41-.13.6A.8.8,0,0,1,452.4,377Z" style="fill:#455a64"></path><path d="M464.07,360.9a2.89,2.89,0,0,0-3,.08,6.87,6.87,0,0,0-2.29,2.53,29.91,29.91,0,0,0-2,3.76,58,58,0,0,0-2.52,7.31c-.25.86-.46,1.61-.64,2.27l-.18.61a1,1,0,0,1-.08.21.89.89,0,0,1,0-.22c0-.2.09-.4.14-.63.17-.65.36-1.41.58-2.27a50.25,50.25,0,0,1,2.47-7.36,28.55,28.55,0,0,1,2-3.79,7,7,0,0,1,2.37-2.55,3.2,3.2,0,0,1,2.32-.34A1.77,1.77,0,0,1,464.07,360.9Z" style="fill:#455a64"></path><path d="M460.26,380.28a.86.86,0,0,1,.34.5,1.44,1.44,0,0,1-.54,1.57,1.92,1.92,0,0,1-2.5-.57,4.16,4.16,0,0,1-.4-3.55,14.74,14.74,0,0,1,.58-2,2.75,2.75,0,0,1,1.59-1.65,2.15,2.15,0,0,1,2.25.87,7.75,7.75,0,0,1,1.25,2.3,9.82,9.82,0,0,1,.29,5.55,8.65,8.65,0,0,1-3.2,5,3.58,3.58,0,0,1-3,.65,3.4,3.4,0,0,1-2.1-2.07,6.49,6.49,0,0,1-.33-2.85c.07-.93.2-1.84.33-2.72a26.78,26.78,0,0,1,2.84-9,15.79,15.79,0,0,1,4.1-4.85,10,10,0,0,1,2-1.24l-.52.31a15.1,15.1,0,0,0-1.42,1,15.91,15.91,0,0,0-4,4.86,27,27,0,0,0-2.78,9c-.13.88-.26,1.78-.32,2.7a6.37,6.37,0,0,0,.32,2.77,3.19,3.19,0,0,0,2,1.94,3.33,3.33,0,0,0,2.78-.63,8.36,8.36,0,0,0,3.12-4.88,9.65,9.65,0,0,0-.27-5.45,7.44,7.44,0,0,0-1.21-2.24,2,2,0,0,0-2.06-.82,2.55,2.55,0,0,0-1.49,1.54,16.73,16.73,0,0,0-.59,2,4.1,4.1,0,0,0,.35,3.45,1.83,1.83,0,0,0,2.37.57,1.37,1.37,0,0,0,.54-1.49A1.34,1.34,0,0,0,460.26,380.28Z" style="fill:#455a64"></path><path d="M233.44,467.66a19.83,19.83,0,0,1-12.87,0V427.17c4.67-2.32,8.93-2.13,12.87,0Z" style="fill:#263238"></path><path d="M233.46,427.19a2.54,2.54,0,0,1-.45.23,11.34,11.34,0,0,1-1.3.5,15.67,15.67,0,0,1-4.53.75,16,16,0,0,1-4.55-.61,10.65,10.65,0,0,1-1.31-.47,1.55,1.55,0,0,1-.46-.22s.68.25,1.81.54a16.73,16.73,0,0,0,9-.13C232.78,427.45,233.45,427.15,233.46,427.19Z" style="fill:#455a64"></path><path d="M231.26,426.86a1.64,1.64,0,0,1-.54.4,6.11,6.11,0,0,1-1.77.46,14.14,14.14,0,0,1-2.71.14,15.57,15.57,0,0,1-1.6-.17,1.15,1.15,0,0,1-.8-.43.66.66,0,0,1,.32-.87,2.45,2.45,0,0,1,.89-.21c.28,0,.57-.05.85-.06a10.48,10.48,0,0,1,1.6.07c.26,0,.51.07.74.12a1,1,0,0,1,.65.39.43.43,0,0,1-.34.6,2.24,2.24,0,0,1-.63,0l-1.82-.1a3.18,3.18,0,0,1-.66-.07,4.28,4.28,0,0,1,.67,0l1.82,0a1.88,1.88,0,0,0,.58,0c.19,0,.32-.2.23-.36-.21-.32-.78-.32-1.26-.4a10.19,10.19,0,0,0-1.58-.06,5.5,5.5,0,0,0-1.63.25c-.23.12-.37.39-.25.58a1,1,0,0,0,.65.34,14.19,14.19,0,0,0,4.26.08,6.35,6.35,0,0,0,1.76-.39A5.35,5.35,0,0,0,231.26,426.86Z" style="fill:#455a64"></path><path d="M220.22,451.74a.74.74,0,0,1,0-.24c0-.21.07-.43.11-.68.12-.7.27-1.54.44-2.49.37-2.11.87-5,1.38-8.25s.91-6.16,1.2-8.28c.13-1,.25-1.8.34-2.51l.1-.69a1.16,1.16,0,0,1,.05-.23.62.62,0,0,1,0,.24c0,.21,0,.44-.06.68-.08.72-.17,1.56-.27,2.53-.25,2.12-.64,5.06-1.15,8.29s-1,6.14-1.44,8.24c-.19,1-.36,1.78-.5,2.49l-.15.67C220.25,451.67,220.23,451.75,220.22,451.74Z" style="fill:#455a64"></path><path d="M233.24,433.73a3.83,3.83,0,0,0-.88-.35,3.52,3.52,0,0,0-2.48.43,7.76,7.76,0,0,0-2.56,2.83,32.9,32.9,0,0,0-2.2,4.2,64.7,64.7,0,0,0-2.81,8.17l-.72,2.53-.2.68a.75.75,0,0,1-.08.24,1.07,1.07,0,0,1,0-.25c.05-.21.11-.44.16-.69.19-.72.4-1.57.65-2.55a58.25,58.25,0,0,1,2.77-8.21,32.55,32.55,0,0,1,2.22-4.22,8,8,0,0,1,2.65-2.86,3.62,3.62,0,0,1,2.58-.38A2,2,0,0,1,233.24,433.73Z" style="fill:#455a64"></path><path d="M229,455.37a1,1,0,0,1,.38.56,1.61,1.61,0,0,1-.6,1.75A2.14,2.14,0,0,1,226,457a4.66,4.66,0,0,1-.44-4,16.44,16.44,0,0,1,.65-2.28A3,3,0,0,1,228,449a2,2,0,0,1,1.38.08,3.26,3.26,0,0,1,1.11.88,8.71,8.71,0,0,1,1.4,2.56,10.92,10.92,0,0,1,.32,6.2,9.62,9.62,0,0,1-3.56,5.59,4,4,0,0,1-3.3.73,3.77,3.77,0,0,1-2.33-2.3,7.1,7.1,0,0,1-.38-3.18c.08-1,.23-2.05.38-3a29.89,29.89,0,0,1,3.16-10,17.34,17.34,0,0,1,4.58-5.42,11,11,0,0,1,2.21-1.39l-.58.35a14,14,0,0,0-1.58,1.1,17.85,17.85,0,0,0-4.5,5.43,29.9,29.9,0,0,0-3.1,10c-.15,1-.29,2-.37,3a6.92,6.92,0,0,0,.37,3.09,3.55,3.55,0,0,0,2.2,2.18,3.78,3.78,0,0,0,3.12-.7,9.41,9.41,0,0,0,3.48-5.47,10.77,10.77,0,0,0-.3-6.08,8.33,8.33,0,0,0-1.36-2.51,2.2,2.2,0,0,0-2.3-.92,2.88,2.88,0,0,0-1.67,1.73,17.19,17.19,0,0,0-.66,2.25,4.53,4.53,0,0,0,.4,3.85,2,2,0,0,0,2.65.64,1.55,1.55,0,0,0,.6-1.67A1.52,1.52,0,0,0,229,455.37Z" style="fill:#455a64"></path><path d="M508.59,467.68a19.53,19.53,0,0,1-12.66,0V427.85c4.59-2.27,8.78-2.09,12.66,0Z" style="fill:#263238"></path><path d="M508.61,427.87a2,2,0,0,1-.45.23,10.77,10.77,0,0,1-1.28.5,15.29,15.29,0,0,1-8.92.13,10.65,10.65,0,0,1-1.3-.46,2.33,2.33,0,0,1-.45-.21s.67.24,1.78.53a16.84,16.84,0,0,0,4.44.53,17.2,17.2,0,0,0,4.41-.66C507.94,428.13,508.59,427.84,508.61,427.87Z" style="fill:#455a64"></path><path d="M506.44,427.55a1.43,1.43,0,0,1-.53.39,6.19,6.19,0,0,1-1.74.46,13.78,13.78,0,0,1-2.67.13,12.66,12.66,0,0,1-1.57-.16,1.11,1.11,0,0,1-.78-.43.63.63,0,0,1,.31-.85,2.36,2.36,0,0,1,.87-.21l.83-.06a10.29,10.29,0,0,1,1.59.07c.25,0,.49.07.73.12a.92.92,0,0,1,.63.38.42.42,0,0,1-.34.59,2.55,2.55,0,0,1-.61,0l-1.79-.1a4.67,4.67,0,0,1-.66-.07,5,5,0,0,1,.66,0l1.79,0a2.7,2.7,0,0,0,.57,0c.19,0,.32-.2.23-.36-.21-.31-.76-.31-1.24-.39a11.17,11.17,0,0,0-1.55-.06,5.42,5.42,0,0,0-1.61.25.43.43,0,0,0-.23.57,1,1,0,0,0,.63.33,14.66,14.66,0,0,0,1.55.17,13.81,13.81,0,0,0,2.64-.09,6.53,6.53,0,0,0,1.73-.38A5.72,5.72,0,0,0,506.44,427.55Z" style="fill:#455a64"></path><path d="M495.58,452l0-.23c0-.21.07-.43.11-.67.12-.7.27-1.52.43-2.46.37-2.07.86-4.94,1.36-8.11s.9-6.06,1.18-8.14c.13-1,.24-1.77.34-2.47,0-.24.06-.47.1-.68a2.32,2.32,0,0,1,0-.23.75.75,0,0,1,0,.24c0,.21,0,.43-.06.68-.08.7-.17,1.53-.27,2.48-.25,2.09-.63,5-1.13,8.15s-1,6-1.41,8.11c-.19.94-.36,1.75-.5,2.44-.06.24-.1.46-.15.67S495.59,452,495.58,452Z" style="fill:#455a64"></path><path d="M508.39,434.31a3.34,3.34,0,0,0-.87-.35,3.48,3.48,0,0,0-2.44.43,7.66,7.66,0,0,0-2.52,2.78,33.25,33.25,0,0,0-2.16,4.14,64.28,64.28,0,0,0-2.77,8l-.7,2.48-.19.67a.91.91,0,0,1-.09.24,1.75,1.75,0,0,1,.05-.25l.16-.68.63-2.5a56.7,56.7,0,0,1,2.72-8.08,32.13,32.13,0,0,1,2.19-4.15,7.68,7.68,0,0,1,2.61-2.81,3.49,3.49,0,0,1,2.53-.38A2,2,0,0,1,508.39,434.31Z" style="fill:#455a64"></path><path d="M504.21,455.6a.93.93,0,0,1,.37.54,1.57,1.57,0,0,1-.59,1.72,2.1,2.1,0,0,1-2.74-.63,4.57,4.57,0,0,1-.44-3.88,17.94,17.94,0,0,1,.64-2.25,3,3,0,0,1,1.74-1.8,1.94,1.94,0,0,1,1.36.09,3.05,3.05,0,0,1,1.1.86,8.55,8.55,0,0,1,1.38,2.52,10.84,10.84,0,0,1,.31,6.1,9.47,9.47,0,0,1-3.51,5.49,3.87,3.87,0,0,1-3.24.72,3.74,3.74,0,0,1-2.3-2.26,7.33,7.33,0,0,1-.37-3.13c.08-1,.23-2,.37-3a29.18,29.18,0,0,1,3.12-9.87,17,17,0,0,1,4.5-5.34,10.85,10.85,0,0,1,2.17-1.36s-.19.13-.57.34a15.35,15.35,0,0,0-1.55,1.09,17.48,17.48,0,0,0-4.42,5.34,29.33,29.33,0,0,0-3.06,9.83c-.14,1-.28,2-.36,3a7,7,0,0,0,.36,3,3.49,3.49,0,0,0,2.17,2.14,3.64,3.64,0,0,0,3.06-.69,9.27,9.27,0,0,0,3.43-5.37,10.6,10.6,0,0,0-.3-6,8.26,8.26,0,0,0-1.33-2.47,2.15,2.15,0,0,0-2.26-.9,2.8,2.8,0,0,0-1.65,1.7,17.72,17.72,0,0,0-.65,2.21,4.47,4.47,0,0,0,.39,3.78,2,2,0,0,0,2.61.63,1.51,1.51,0,0,0,.59-1.64A1.27,1.27,0,0,0,504.21,455.6Z" style="fill:#455a64"></path><polygon points="474.05 400.99 474.05 404.39 464.25 403.3 474.05 400.99" style="fill:#263238"></polygon><polygon points="492.56 428.52 492.56 433.04 483.2 433.84 492.56 428.52" style="fill:#263238"></polygon><polygon points="289.46 350.29 289.46 353.23 293.93 352.42 289.46 350.29" style="fill:#263238"></polygon><polygon points="287.86 353.52 287.86 356.15 290.7 355.01 287.86 353.52" style="fill:#263238"></polygon></g><g id="freepik--Seagull--inject-10"><path d="M526.26,403.09a34.42,34.42,0,0,0,18.48-5.33,8.31,8.31,0,0,1-3.73.44,7.43,7.43,0,0,0,4.12-3.12,86.4,86.4,0,0,1-17.52,1.33" style="fill:#263238"></path><path d="M500,411.43l.1,14.19-7.49,2.63s2.52.66,2.16,2c0,0,2.27-.57,2.84,1.39l3.79-4.51-.11-15.67Z" style="fill:#eb996e"></path><path d="M502.38,418a1.74,1.74,0,1,1-1.77-1.22A1.55,1.55,0,0,1,502.38,418Z" style="fill:#eb996e"></path><path d="M507,411.39l.09,14.18-7.49,2.64s2.53.66,2.17,2c0,0,2.27-.57,2.84,1.4l3.78-4.52-.1-15.66Z" style="fill:#eb996e"></path><path d="M509.43,417.93a1.74,1.74,0,1,1-1.77-1.22A1.54,1.54,0,0,1,509.43,417.93Z" style="fill:#eb996e"></path><path d="M481.24,375.77s2.84-.85,3.79-1.93,4-4.69,8.11-3.76,7,4,6.86,7.13.05,6.94.05,6.94l33.32,12.33s-10.43,14.18-23.22,14.75c0,0-1.18,1.8-2.56,1.69a6.2,6.2,0,0,1-2.94-1.66s-9.2,1.26-15.32-2.65-11.42-8.53-11.11-16.43,7.2-13.2,7.2-13.2Z" style="fill:#fafafa"></path><path d="M481.24,375.77l4.23,3.15.08.06-.08.06a22.15,22.15,0,0,0-5.24,6.46,16.52,16.52,0,0,0-1.73,5.19,14.6,14.6,0,0,0,.45,6.21,15.24,15.24,0,0,0,3.48,6,32.13,32.13,0,0,0,5.91,4.86,19,19,0,0,0,3.54,1.94,22.09,22.09,0,0,0,4,1.12,31.29,31.29,0,0,0,8.72.25h.1l.08.07a6,6,0,0,0,2.64,1.57c1,.17,1.92-.72,2.53-1.57l.07-.1h.1c5-.3,9.85-2.55,14-5.75a48.52,48.52,0,0,0,9-8.91l.1.34L500,384.31l-.11,0v-.12c-.07-2.39-.1-4.68,0-6.84a5.57,5.57,0,0,0-.74-2.94,7.88,7.88,0,0,0-1.89-2.19,10,10,0,0,0-4.78-2.09,6.69,6.69,0,0,0-4.23,1.06,12.67,12.67,0,0,0-2.73,2.32,5.39,5.39,0,0,1-2.15,1.56,15.46,15.46,0,0,1-1.54.59c-.35.11-.54.15-.54.15l.52-.2c.35-.13.86-.32,1.51-.63a5.19,5.19,0,0,0,2.08-1.58,13.2,13.2,0,0,1,2.74-2.38,6.85,6.85,0,0,1,4.36-1.13,10.31,10.31,0,0,1,4.93,2.1,8.21,8.21,0,0,1,2,2.27,5.83,5.83,0,0,1,.8,3.1c-.06,2.15,0,4.43.07,6.82l-.12-.16,33.34,12.3.28.1-.18.23a48.92,48.92,0,0,1-9.11,9c-4.23,3.23-9.18,5.53-14.28,5.82l.17-.09a5.34,5.34,0,0,1-1.23,1.28,2.27,2.27,0,0,1-1.73.47,6.24,6.24,0,0,1-2.87-1.69l.18.06a31.06,31.06,0,0,1-8.85-.27,21.43,21.43,0,0,1-4.1-1.15,19.55,19.55,0,0,1-3.6-2,31.59,31.59,0,0,1-6-4.94,15.55,15.55,0,0,1-3.54-6.13,15,15,0,0,1-.41-6.34,16.24,16.24,0,0,1,1.79-5.26,21.69,21.69,0,0,1,5.37-6.47V379l-3.12-2.45-.77-.62A1.42,1.42,0,0,1,481.24,375.77Z" style="fill:#263238"></path><path d="M531.36,394.28a30.15,30.15,0,0,0-32-9.85l.25-.1a20.73,20.73,0,0,0-8.72,3.38c-1.1.76-2.23,1.82-2.19,3.16a4.26,4.26,0,0,0,2,2.89,34.81,34.81,0,0,0,40.49,1.64.82.82,0,0,0,.42-.48A.87.87,0,0,0,531.36,394.28Z" style="fill:#ebebeb"></path><path d="M491.32,375.18a1.06,1.06,0,0,1-2.12,0,1.06,1.06,0,1,1,2.12,0Z" style="fill:#263238"></path><path d="M517.84,391.67s-.11.12-.35.27a6.27,6.27,0,0,1-1.14.53,7.22,7.22,0,0,1-4.4.06l.12-.39a1.35,1.35,0,0,1,.49,2.19,2.34,2.34,0,0,1-2.51.45,8.52,8.52,0,0,1-1.32-.64l.3-.31a2.17,2.17,0,0,1,.06,2,2.5,2.5,0,0,1-1.35,1.29,4.08,4.08,0,0,1-3-.07,8.59,8.59,0,0,1-1.74-1c-.38-.27-.58-.43-.56-.45a2.36,2.36,0,0,1,.64.31,9.94,9.94,0,0,0,1.76.82,3.83,3.83,0,0,0,2.75,0,2.17,2.17,0,0,0,1.12-1.11,1.75,1.75,0,0,0-.06-1.62l-.46-.74.76.43a7.4,7.4,0,0,0,1.24.59,1.91,1.91,0,0,0,2.05-.31,1,1,0,0,0-.28-1.51l.12-.38a7.35,7.35,0,0,0,4.2.09C517.29,392,517.82,391.62,517.84,391.67Z" style="fill:#263238"></path><path d="M530.14,395.82s0,.06-.14.16-.26.25-.47.43a12.27,12.27,0,0,1-2,1.34,13.28,13.28,0,0,1-8.45,1.42l.1-.36a4.51,4.51,0,0,1,2.05,1.47l.19.25-.3.07a16,16,0,0,1-7.74-.08l-1.28-.34,1.33-.09a.77.77,0,0,1,.75.55,1.22,1.22,0,0,1,0,.88,1.47,1.47,0,0,1-1.5.73,57.76,57.76,0,0,1-16.8-5.58,49.42,49.42,0,0,1-4.66-2.67c-.54-.33-.94-.62-1.21-.81a2.67,2.67,0,0,1-.41-.31,1.9,1.9,0,0,1,.46.23l1.25.75c1.09.64,2.68,1.54,4.71,2.53a62.46,62.46,0,0,0,7.32,3,55.85,55.85,0,0,0,9.36,2.39c.45,0,1-.13,1.08-.46s0-.87-.31-.82l.05-.44a15.69,15.69,0,0,0,7.54.12l-.12.32a4,4,0,0,0-1.86-1.36l.1-.37a13.44,13.44,0,0,0,8.28-1.24A21.07,21.07,0,0,0,530.14,395.82Z" style="fill:#263238"></path><path d="M491.71,373.39a1.22,1.22,0,0,1-.52.11,1.74,1.74,0,0,1-.46,0,1.79,1.79,0,0,1-.44-.16,1.27,1.27,0,0,1-.43-.31.43.43,0,0,1,.11-.58,1.17,1.17,0,0,1,1-.26,1.16,1.16,0,0,1,.84.64A.45.45,0,0,1,491.71,373.39Z" style="fill:#263238"></path><path d="M481.24,375.77s-8.35-.47-9.6,7l1.22-.68a5,5,0,0,1,2.07-.63l8.72-1,1.77-1.48Z" style="fill:#FF725E"></path><path d="M480.9,376.53c0,.13-.48.26-1.08.36s-1.1.13-1.13,0,.43-.34,1.06-.45S480.89,376.41,480.9,376.53Z" style="fill:#263238"></path><path d="M484.51,379.81a9,9,0,0,1-2,.35c-1.21.15-2.89.34-4.75.52-.93.09-1.82.15-2.61.27a6.4,6.4,0,0,0-2,.6,5.69,5.69,0,0,0-1.48,1.22c-.05,0,.22-.83,1.33-1.5a6,6,0,0,1,2.08-.72c.81-.15,1.7-.22,2.63-.31,1.85-.18,3.54-.32,4.76-.4A9.38,9.38,0,0,1,484.51,379.81Z" style="fill:#263238"></path><path d="M531.62,394.92a15.52,15.52,0,0,1-1.39-1.29c-.89-.85-2.2-2-3.88-3.42a39,39,0,0,0-6.22-4.42,20.42,20.42,0,0,0-4.14-1.7,20.86,20.86,0,0,0-4.75-.72c-6.63-.16-12.69.88-16.65,2.67a21.56,21.56,0,0,0-4.45,2.56c-1,.73-1.47,1.2-1.5,1.16a2,2,0,0,1,.32-.37c.23-.23.58-.56,1.05-.95a20.3,20.3,0,0,1,4.43-2.74c4-1.91,10.11-3,16.83-2.85a21.44,21.44,0,0,1,4.86.75,20.34,20.34,0,0,1,4.23,1.77,36.23,36.23,0,0,1,6.22,4.56,50.88,50.88,0,0,1,3.79,3.55c.42.45.74.8,1,1A1.82,1.82,0,0,1,531.62,394.92Z" style="fill:#263238"></path></g><g id="freepik--Plants--inject-10"><path d="M113.81,341.23l.43,0c-.88-13-7.4-26.9-12.13-39.08-4.87-12.53-9.43-25.39-20.5-33a762.11,762.11,0,0,1,32.2,72.12" style="fill:#455a64"></path><path d="M121.58,275.26s0,.05,0,.16l-.15.49-.62,1.85c-.13.4-.28.85-.45,1.33s-.31,1-.48,1.61c-.34,1.15-.76,2.45-1.13,3.92l-.6,2.3c-.21.79-.38,1.64-.58,2.5-.42,1.73-.76,3.6-1.14,5.56-.68,3.94-1.27,8.31-1.62,12.91s-.37,9-.28,13c.09,2,.14,3.9.3,5.67.07.89.11,1.75.2,2.57s.17,1.61.24,2.36c.14,1.51.36,2.86.51,4.05.08.6.16,1.15.23,1.66s.16,1,.23,1.39c.14.82.24,1.47.32,1.92,0,.21,0,.38.07.51a1.06,1.06,0,0,1,0,.17s-.84-3.66-1.57-9.68c-.08-.75-.17-1.54-.26-2.36s-.14-1.68-.22-2.57c-.16-1.78-.23-3.68-.32-5.68-.11-4-.06-8.42.26-13s1-9,1.64-12.93c.39-2,.73-3.84,1.17-5.57.2-.86.38-1.71.59-2.51l.63-2.29c.37-1.47.81-2.77,1.16-3.92.19-.57.35-1.11.51-1.6l.47-1.33c.29-.78.51-1.4.67-1.83l.17-.48Z" style="fill:#455a64"></path><rect x="109.45" y="273.52" width="22.29" height="6.64" rx="2.97" transform="translate(-178.63 317.4) rotate(-74.18)" style="fill:#f5f5f5"></rect><path d="M117.89,287.66s.19,0,.53.07a3.12,3.12,0,0,0,1.48-.27,2.89,2.89,0,0,0,1.54-1.72c.26-.9.54-1.95.87-3.1.64-2.31,1.4-5,2.25-8.08.43-1.51.88-3.11,1.34-4.76a2.86,2.86,0,0,0-.44-2.38,2.92,2.92,0,0,0-.94-.84,6.66,6.66,0,0,0-1.26-.43,2.89,2.89,0,0,0-2.44.44,3,3,0,0,0-.83.94,6.52,6.52,0,0,0-.41,1.2c-.47,1.65-.92,3.25-1.36,4.76l-2.31,8.06c-.17.58-.32,1.12-.47,1.64a4.75,4.75,0,0,0-.3,1.46,2.92,2.92,0,0,0,.93,2.11,3.06,3.06,0,0,0,1.32.72l.38.13c.08,0,.13,0,.12.05l-.13,0-.39-.09a3.1,3.1,0,0,1-1.37-.7,3,3,0,0,1-1-2.19,5.14,5.14,0,0,1,.28-1.51c.14-.52.29-1.07.45-1.64.65-2.3,1.41-5,2.26-8.07.43-1.52.88-3.12,1.34-4.77a6.22,6.22,0,0,1,.44-1.25,2.87,2.87,0,0,1,.9-1,3.11,3.11,0,0,1,2.68-.49,6.55,6.55,0,0,1,1.31.45,3.29,3.29,0,0,1,1,.92,3.13,3.13,0,0,1,.47,2.61l-1.35,4.76-2.32,8.06c-.33,1.15-.62,2.18-.91,3.1a3,3,0,0,1-1.64,1.77,2.83,2.83,0,0,1-1.52.22A2,2,0,0,1,117.89,287.66Z" style="fill:#263238"></path><path d="M116.61,341.19c-.41-10-.42-21.09,5.27-29.37,3.23-4.69,8.08-8.07,13.27-10.4a94,94,0,0,1,16.29-5.05c-6.16,8.63-20.12,8.73-26,17.54-1.75,2.61-2.57,5.72-3.36,8.76-1.64,6.3-3.09,12.27-4.73,18.56" style="fill:#455a64"></path><path d="M72.62,305.94h.14l.4,0c.35.05.87.09,1.53.22a36.27,36.27,0,0,1,5.5,1.38,39.32,39.32,0,0,1,7.66,3.5,43,43,0,0,1,4.1,2.82,41.2,41.2,0,0,1,4,3.6,36,36,0,0,1,3.4,4.13c.51.7,1,1.42,1.42,2.11s.85,1.41,1.22,2.11a42,42,0,0,1,3.31,7.74,35.84,35.84,0,0,1,1.31,5.52c.12.66.15,1.18.19,1.53l0,.4c0,.09,0,.14,0,.14s0-.05,0-.14l-.06-.39c-.06-.35-.11-.87-.25-1.52a39.81,39.81,0,0,0-1.38-5.48,43.44,43.44,0,0,0-3.35-7.68c-.37-.7-.8-1.38-1.23-2.09s-.9-1.4-1.41-2.09a35.48,35.48,0,0,0-3.38-4.1,37.31,37.31,0,0,0-3.92-3.58,42.42,42.42,0,0,0-4.06-2.81,39.88,39.88,0,0,0-7.59-3.54,40.68,40.68,0,0,0-5.46-1.46c-.66-.14-1.17-.19-1.52-.26l-.39-.07Z" style="fill:#455a64"></path><rect x="69.3" y="293.5" width="6.64" height="22.29" rx="2.97" transform="translate(-233.4 238.08) rotate(-64.32)" style="fill:#f5f5f5"></rect><path d="M82.82,309.16s.07-.17.16-.51a3.13,3.13,0,0,0,0-1.5,2.88,2.88,0,0,0-1.44-1.81c-.84-.42-1.83-.87-2.9-1.39l-7.57-3.6-4.46-2.14a2.88,2.88,0,0,0-2.42,0,2.94,2.94,0,0,0-1,.8,6.11,6.11,0,0,0-.64,1.16,2.84,2.84,0,0,0,0,2.48,2.72,2.72,0,0,0,.78,1,5.17,5.17,0,0,0,1.11.61l4.46,2.16,7.54,3.66,1.53.74a5.08,5.08,0,0,0,1.39.55,3,3,0,0,0,2.24-.56,3.1,3.1,0,0,0,.94-1.17l.19-.36c0-.08.06-.11.07-.11a.93.93,0,0,1,0,.13l-.16.36a3,3,0,0,1-.92,1.24,3.05,3.05,0,0,1-2.33.62,5.17,5.17,0,0,1-1.44-.54l-1.54-.73-7.57-3.61-4.47-2.13a6.69,6.69,0,0,1-1.16-.64,3.33,3.33,0,0,1-.86-1.07,3.09,3.09,0,0,1,0-2.72,6.22,6.22,0,0,1,.66-1.21,3.16,3.16,0,0,1,1.09-.87,3.11,3.11,0,0,1,2.65,0l4.46,2.15,7.54,3.66c1.08.52,2.05,1,2.9,1.42a3,3,0,0,1,1.46,1.92,2.92,2.92,0,0,1,0,1.54A1.91,1.91,0,0,1,82.82,309.16Z" style="fill:#263238"></path><path d="M622.05,314.6q7.69,54.75,15.38,109.49l4,.13C638.88,387,636.16,349.1,622.05,314.6Z" style="fill:#455a64"></path><path d="M664.75,309.47C654,321.24,649.69,337.42,647,353.12c-3.85,22.26-4.2,48.54-3.05,71.1l5.61.13A309,309,0,0,1,664.75,309.47Z" style="fill:#455a64"></path><path d="M624.88,379.38c-1.24-5.43-2.65-10.95-5.75-15.57-4.18-6.24-11-10.19-17.85-13.26S587.21,345,581,340.77c6.91,11.33,22.6,14.35,30.59,25,4,5.27,5.62,11.89,7.18,18.31,3.4,14,5.49,26.11,8.89,40.1h4.54A358.57,358.57,0,0,0,624.88,379.38Z" style="fill:#455a64"></path><path d="M653.63,424.22s3.85-43.48,6.71-51.47,29.84-30,29.58-29-20.24,25.17-23.09,30.1S659,424.22,659,424.22Z" style="fill:#455a64"></path></g><g id="freepik--Birds--inject-10"><path d="M255.58,141.73c0,.06-1.11-.39-3.15-.84a25.09,25.09,0,0,0-8.78-.34,23.62,23.62,0,0,0-11.84,5.11,24.59,24.59,0,0,0-8.36,13.26l0,.15-.25,1-.36-.9a26.44,26.44,0,0,0-10-12.08A25.53,25.53,0,0,0,200.59,143a26.86,26.86,0,0,0-8.73.8c-2,.53-3.08,1-3.1.94a3.79,3.79,0,0,1,.76-.37,18.53,18.53,0,0,1,2.27-.81,26.08,26.08,0,0,1,21.33,3,26.66,26.66,0,0,1,10.28,12.33l-.61.05,0-.15a25,25,0,0,1,8.61-13.58,23.91,23.91,0,0,1,12.15-5.1,24.16,24.16,0,0,1,8.9.55,18,18,0,0,1,2.31.73A4.24,4.24,0,0,1,255.58,141.73Z" style="fill:#263238"></path><path d="M353,83.47c0,.06-.62-.17-1.75-.4a13.9,13.9,0,0,0-4.8-.14A12.89,12.89,0,0,0,340,85.74,13.35,13.35,0,0,0,335.47,93l0,.08-.25.95-.36-.9a14.41,14.41,0,0,0-5.44-6.58,14,14,0,0,0-6.65-2.25,15,15,0,0,0-4.78.39c-1.11.27-1.7.51-1.73.46a1.61,1.61,0,0,1,.41-.23,10.1,10.1,0,0,1,1.25-.47A14.33,14.33,0,0,1,329.72,86a14.8,14.8,0,0,1,5.71,6.84l-.6.05,0-.08a13.77,13.77,0,0,1,4.79-7.54,13.32,13.32,0,0,1,11.67-2.45,8.28,8.28,0,0,1,1.27.43A1.61,1.61,0,0,1,353,83.47Z" style="fill:#263238"></path><path d="M284.79,69.84s-.6.69-1.69,1.91A42.09,42.09,0,0,0,279,77.32,40.49,40.49,0,0,0,272.86,99a2.35,2.35,0,0,1,0,.27l-.63,0a35.6,35.6,0,0,0-4-11.73,36.38,36.38,0,0,0-6-8.14A35.67,35.67,0,0,0,257,75c-1.33-.93-2.1-1.39-2.07-1.44a2.7,2.7,0,0,1,.59.28c.37.22.94.49,1.62,1a32.26,32.26,0,0,1,5.41,4.32,35.86,35.86,0,0,1,10.3,20.1l-.63.05V99a39.8,39.8,0,0,1,6.38-21.91,35.51,35.51,0,0,1,4.32-5.49c.55-.61,1.05-1,1.36-1.33S284.77,69.82,284.79,69.84Z" style="fill:#263238"></path></g><g id="freepik--Sea--inject-10"><path d="M692.15,225.43c0,.14-153.95.26-343.81.26s-343.85-.12-343.85-.26,153.92-.26,343.85-.26S692.15,225.29,692.15,225.43Z" style="fill:#263238"></path><path d="M683.6,424.13c0,.15-23.62.26-52.74.26s-52.75-.11-52.75-.26,23.61-.26,52.75-.26S683.6,424,683.6,424.13Z" style="fill:#263238"></path><path d="M632.42,426.61c0,.14-.83.26-1.86.26s-1.85-.12-1.85-.26.83-.26,1.85-.26S632.42,426.47,632.42,426.61Z" style="fill:#455a64"></path><path d="M641.86,427.16c0,.15-.88.26-2,.26s-2-.11-2-.26.88-.26,2-.26S641.86,427,641.86,427.16Z" style="fill:#455a64"></path><path d="M648.47,427.3c0,.14-.76.26-1.69.26s-1.69-.12-1.69-.26.76-.26,1.69-.26S648.47,427.16,648.47,427.3Z" style="fill:#455a64"></path><path d="M658.25,427.16a9.48,9.48,0,0,1-4.41,0,9.48,9.48,0,0,1,4.41,0Z" style="fill:#455a64"></path><path d="M649.57,429.3c0,.14-.82.26-1.82.26s-1.83-.12-1.83-.26.82-.26,1.83-.26S649.57,429.15,649.57,429.3Z" style="fill:#455a64"></path><path d="M644.2,430.05a9.19,9.19,0,0,1-4.34,0,9.19,9.19,0,0,1,4.34,0Z" style="fill:#455a64"></path><path d="M606.79,292.57c0,.15-29.93.26-66.86.26s-66.86-.11-66.86-.26,29.93-.26,66.86-.26S606.79,292.43,606.79,292.57Z" style="fill:#263238"></path><path d="M646.08,304.75c0,.15-29.94.26-66.86.26s-66.87-.11-66.87-.26,29.94-.26,66.87-.26S646.08,304.61,646.08,304.75Z" style="fill:#263238"></path><path d="M734.6,233c0,.14-63.16.26-141.06.26s-141.08-.12-141.08-.26,63.15-.26,141.08-.26S734.6,232.85,734.6,233Z" style="fill:#455a64"></path><path d="M525.72,238.25c0,.15-18.75.27-41.86.27S442,238.4,442,238.25s18.74-.26,41.87-.26S525.72,238.11,525.72,238.25Z" style="fill:#455a64"></path><path d="M744.33,237.79c0,.14-15.1.26-33.72.26s-33.73-.12-33.73-.26,15.1-.26,33.73-.26S744.33,237.65,744.33,237.79Z" style="fill:#455a64"></path><path d="M211.63,341.49c0,.14-30.09.26-67.21.26s-67.21-.12-67.21-.26,30.09-.26,67.21-.26S211.63,341.35,211.63,341.49Z" style="fill:#263238"></path><path d="M222.17,326.24c0,.14-11.44.26-25.56.26s-25.55-.12-25.55-.26,11.44-.26,25.55-.26S222.17,326.09,222.17,326.24Z" style="fill:#263238"></path><path d="M124,345.91a102.25,102.25,0,0,1-10.24.26,102.13,102.13,0,0,1-10.23-.26,102.13,102.13,0,0,1,10.23-.26A102.25,102.25,0,0,1,124,345.91Z" style="fill:#455a64"></path><path d="M112,350.58a16.32,16.32,0,0,1-4.07.06,15.88,15.88,0,0,1-4-.47,16.06,16.06,0,0,1,4.07-.05A15.63,15.63,0,0,1,112,350.58Z" style="fill:#455a64"></path><path d="M107.53,355.84c0,.15-.83.22-1.84.16s-1.82-.22-1.81-.36.83-.21,1.84-.16S107.54,355.7,107.53,355.84Z" style="fill:#455a64"></path></g><g id="freepik--Mountain--inject-10"><path d="M739.39,164c-8.42-5.64-28.07-6.1-35.5.78-2.95-5.61-13.49-3-13.49,3.31-5.24-4.25-14.58,1.86-12.8,8.36-3.87-5-13.4-2.64-14.56,3.54l-28.78-10.19a41.27,41.27,0,0,0-38.52-2.51,6.72,6.72,0,0,0-12,5.85,7.93,7.93,0,0,0-11.27,3.66c-3.12-4.16-11.27-1.3-11.11,3.9-4.4-2.64-11.05,1.13-11.05,6.27-2.47-4.51-10.23-4.44-12.62.11a10.37,10.37,0,0,0-11.59-7.1A25.57,25.57,0,0,0,496.7,177a6.7,6.7,0,0,0-12.18,5.12c-4.55-3.86-12.67-1.89-14.94,3.63-3.22-4-11.14-.44-10.35,4.61-2.8-4-10.65-.57-9.58,4.21-2.76-4.65-11.68-1.4-10.81,3.92-5.62-3.56-14.22-.58-16.42,5.71-2.39-4.88-11.54-2.67-11.43,2.76-3-5.47-11.77-6.5-16-1.87-4.2-4.92-12.59-5.42-17.35-1,1.58-4.21-3.27-9.2-7.53-7.73a11.1,11.1,0,1,0-22.16.38,5.55,5.55,0,1,0-4.06,10.18,6.4,6.4,0,1,0-9.17,8.59,8.74,8.74,0,0,0-13.2,10.32H739.39Z" style="fill:#455a64"></path><path d="M547.11,187.07s-.34-.3-1.06-.74a7.76,7.76,0,0,0-3.41-1.1,7.09,7.09,0,0,0-5.19,1.61,7.51,7.51,0,0,0-2.61,6.43l0,.25h-.26a9.42,9.42,0,0,0-7.06,3.3,9.56,9.56,0,0,0-2.41,8.32l.1.46-.45-.16a10.3,10.3,0,0,0-1.22-.34,9,9,0,0,0-8.49,2.84,9.15,9.15,0,0,0-1.94,7.87l.12.49-.45-.24a10.37,10.37,0,0,0-7.23-1,11.73,11.73,0,0,0-5.17,2.48,11.55,11.55,0,0,0-3,4,1.43,1.43,0,0,1,.11-.33c.09-.21.19-.53.39-.92a10.35,10.35,0,0,1,2.36-3,12,12,0,0,1,5.27-2.65,10.77,10.77,0,0,1,7.53.94l-.33.25a9.58,9.58,0,0,1,2-8.3,9.43,9.43,0,0,1,9-3A8.41,8.41,0,0,1,525,205l-.34.3a10,10,0,0,1,2.55-8.77,9.83,9.83,0,0,1,7.45-3.41l-.23.25a7.87,7.87,0,0,1,2.81-6.76,7.36,7.36,0,0,1,5.45-1.59,7.5,7.5,0,0,1,3.47,1.25,6.48,6.48,0,0,1,.76.6C547,187,547.12,187.06,547.11,187.07Z" style="fill:#263238"></path><path d="M675.32,174.91a16.42,16.42,0,0,0-12.49,4.33,15.34,15.34,0,0,0-4.67,7.79l0,.21-.2,0a12,12,0,0,0-7.42,1.8,13,13,0,0,0-5.38,6.33,11.34,11.34,0,0,0-.71,3l-.06.43-.35-.24a8.34,8.34,0,0,0-9.45,0,8.44,8.44,0,0,0-3.35,7.8l.07.49-.4-.29a7.78,7.78,0,0,0-6.52-1.09,7.4,7.4,0,0,0-4.13,3.07,7.94,7.94,0,0,0-1.24,3.14c-.12.77-.1,1.19-.14,1.19a1.16,1.16,0,0,1,0-.3,6.49,6.49,0,0,1,0-.91,7.83,7.83,0,0,1,5.4-6.52,8.11,8.11,0,0,1,6.86,1.07l-.33.21a8.63,8.63,0,0,1,13.52-8.3l-.41.19a11.92,11.92,0,0,1,.75-3.09c2.23-5.71,8.25-9,13.33-8.41l-.26.18a15.6,15.6,0,0,1,4.87-8,16.73,16.73,0,0,1,6.37-3.59,15.15,15.15,0,0,1,4.7-.64c.55,0,1,.09,1.26.11S675.33,174.89,675.32,174.91Z" style="fill:#263238"></path><path d="M591.88,220.54a3.06,3.06,0,0,1,.55-1A8.69,8.69,0,0,1,599,216a9,9,0,0,1,5.42,1.52l-.39.14v-.05a6.22,6.22,0,0,1,3.89-4,5.69,5.69,0,0,1,4.59.37,6,6,0,0,1,2.29,2.12,2.49,2.49,0,0,1,.44,1.05s-.19-.36-.61-.94a6.24,6.24,0,0,0-2.28-1.9,5.44,5.44,0,0,0-4.27-.25,5.78,5.78,0,0,0-3.54,3.74l0,0-.11.34-.29-.19a8.67,8.67,0,0,0-5.11-1.47,8.34,8.34,0,0,0-4.2,1.27A11.6,11.6,0,0,0,591.88,220.54Z" style="fill:#263238"></path><path d="M430.73,204.08a8.39,8.39,0,0,0-2.25.91,6.6,6.6,0,0,0-2,1.93,5.9,5.9,0,0,0-1,3.34v.51l-.38-.33a6.27,6.27,0,0,0-3.75-1.47,5.88,5.88,0,0,0-4.23,1.44,6.3,6.3,0,0,0-2.1,5.38l.08.6-.47-.38a6.41,6.41,0,0,0-4.28-1.35,6.29,6.29,0,0,0-3.35,1.21,8.33,8.33,0,0,0-2.12,2.46,2.37,2.37,0,0,1,.34-.82,6.14,6.14,0,0,1,1.59-1.87,6.46,6.46,0,0,1,3.52-1.39,6.72,6.72,0,0,1,4.6,1.38l-.39.22A6.74,6.74,0,0,1,416.8,210a6.34,6.34,0,0,1,4.6-1.55,6.58,6.58,0,0,1,4,1.63l-.37.17a6.17,6.17,0,0,1,1.16-3.56,6.44,6.44,0,0,1,2.13-1.94,5.57,5.57,0,0,1,1.73-.65A2,2,0,0,1,430.73,204.08Z" style="fill:#263238"></path><path d="M722.44,178.41a13.29,13.29,0,0,0-4.53,0,11.58,11.58,0,0,0-4.56,2,10.85,10.85,0,0,0-3.84,4.77l-.11.26-.24-.12a11.67,11.67,0,0,0-10.67.27,11.64,11.64,0,0,0-4.33,4.26,12.12,12.12,0,0,0-1.48,3.87c-.19,1-.21,1.53-.26,1.52a1.71,1.71,0,0,1,0-.4,8.13,8.13,0,0,1,.08-1.15,11.78,11.78,0,0,1,5.78-8.52,12.09,12.09,0,0,1,7.57-1.4,11.94,11.94,0,0,1,3.55,1.09L709,185a11,11,0,0,1,4.07-5,11.68,11.68,0,0,1,4.75-1.92,10,10,0,0,1,3.4,0,5.92,5.92,0,0,1,.89.21C722.34,178.35,722.45,178.39,722.44,178.41Z" style="fill:#263238"></path></g></svg>